<svg width="52" height="46" viewBox="0 0 52 46" fill="none" xmlns="http://www.w3.org/2000/svg">
<path d="M48.9883 1.50391C48.4609 0.449219 47.0547 0.361328 46.4395 1.41602C43.7148 6.16211 38.8809 9.0625 33.3438 9.0625H26.3125C16.9961 9.0625 9.4375 16.6211 9.4375 25.9375C9.4375 26.5527 9.4375 27.168 9.52539 27.7832C15.1504 23.7402 23.2363 20.3125 34.75 20.3125C35.4531 20.3125 36.1562 21.0156 36.1562 21.7188C36.1562 22.5098 35.4531 23.125 34.75 23.125C12.6016 23.125 3.28516 36.748 1.17578 41.7578C0.560547 43.252 1.26367 44.834 2.66992 45.4492C4.16406 46.0645 5.74609 45.3613 6.36133 43.9551C6.53711 43.6035 8.20703 39.7363 12.6895 35.957C15.5898 39.8242 20.9512 43.5156 28.0703 42.7246C41.8691 41.7578 51.625 29.3652 51.625 14.248C51.625 9.85352 50.6582 5.2832 48.9883 1.50391Z" fill="black"/>
</svg>
